<?xml version="1.0" standalone="no"?>
<!DOCTYPE svg PUBLIC "-//W3C//DTD SVG 20010904//EN"
 "http://www.w3.org/TR/2001/REC-SVG-20010904/DTD/svg10.dtd">
<svg version="1.0" xmlns="http://www.w3.org/2000/svg"
 width="300.000000pt" height="68.000000pt" viewBox="0 0 300.000000 68.000000"
 preserveAspectRatio="xMidYMid meet">
<metadata>
Created by potrace 1.10, written by Peter Selinger 2001-2011
</metadata>
<g transform="translate(0.000000,68.000000) scale(0.100000,-0.100000)"
fill="#000000" stroke="none">
<path d="M0 340 l0 -340 1500 0 1500 0 0 340 0 340 -1500 0 -1500 0 0 -340z
m557 218 l33 -32 0 -168 0 -168 -32 -30 -33 -29 -171 -1 -170 0 -27 28 -27 28
0 169 0 169 32 33 32 33 165 0 165 0 33 -32z m153 -174 c0 -57 2 -65 18 -62
11 2 16 11 14 26 -3 18 2 22 25 22 27 0 28 -2 28 -45 l0 -45 -67 0 -68 0 0 85
c0 84 0 85 25 85 24 0 25 -2 25 -66z m263 19 c9 -27 17 -65 17 -85 0 -36 -2
-38 -31 -38 -26 0 -29 3 -24 20 5 16 2 20 -19 20 -19 0 -26 -5 -26 -20 0 -15
-7 -20 -25 -20 -22 0 -25 4 -25 38 0 20 8 58 17 85 16 46 18 47 58 47 40 0 42
-1 58 -47z m119 -15 c2 -50 6 -63 21 -66 15 -3 17 5 17 62 0 64 1 66 25 66 25
0 25 -1 25 -79 0 -63 -3 -80 -16 -85 -27 -10 -99 -7 -112 6 -7 7 -12 42 -12
85 0 71 1 73 25 73 23 0 24 -4 27 -62z m268 47 c7 -8 10 -26 8 -40 -3 -14 1
-30 8 -36 8 -6 14 -27 14 -45 0 -31 -3 -34 -30 -34 -27 0 -30 3 -30 30 0 23
-4 30 -20 30 -16 0 -20 -7 -20 -30 0 -25 -4 -30 -25 -30 -25 0 -25 1 -25 85
l0 85 54 0 c35 0 58 -5 66 -15z m204 -32 c9 -26 16 -64 16 -85 0 -34 -3 -38
-25 -38 -18 0 -25 5 -25 20 0 15 -7 20 -25 20 -18 0 -25 -5 -25 -20 0 -15 -7
-20 -25 -20 -22 0 -25 4 -25 34 0 18 7 57 17 85 16 51 16 51 59 51 41 0 42 -1
58 -47z m266 32 c7 -8 10 -26 8 -40 -3 -14 -1 -28 3 -31 5 -3 9 -23 9 -45 0
-35 -3 -39 -25 -39 -21 0 -25 5 -25 30 0 23 -4 30 -20 30 -16 0 -20 -7 -20
-31 0 -27 -3 -30 -26 -27 -26 3 -26 4 -26 81 1 42 1 79 2 82 0 3 24 5 54 5 35
0 58 -5 66 -15z m197 -22 c9 -21 18 -59 21 -85 l5 -48 -33 0 c-27 0 -32 3 -27
20 4 16 0 20 -19 20 -17 0 -24 -6 -24 -20 0 -15 -7 -20 -25 -20 -22 0 -25 4
-25 38 0 21 7 59 16 85 15 45 17 47 55 47 37 0 41 -3 56 -37z m135 12 c6 -14
14 -25 18 -25 4 0 12 11 18 25 9 19 19 25 42 25 l30 0 0 -85 0 -85 -31 0 -32
0 6 48 c6 40 5 45 -7 30 -7 -10 -17 -18 -22 -18 -14 0 -41 34 -37 47 2 6 -1
14 -6 18 -7 3 -11 -2 -11 -14 0 -11 5 -23 10 -26 6 -3 10 -24 10 -46 0 -35 -3
-39 -25 -39 -25 0 -25 1 -25 85 0 84 0 85 25 85 17 0 29 -8 37 -25z m283 0 c0
-16 -8 -21 -38 -23 -37 -3 -38 -4 -35 -40 2 -26 8 -38 21 -40 14 -3 18 2 15
20 -2 19 2 24 25 26 26 3 27 2 27 -42 l0 -46 -58 0 c-32 0 -63 5 -70 12 -7 7
-12 39 -12 75 0 73 11 84 80 80 38 -2 45 -5 45 -22z m181 1 c2 -11 -5 -20 -17
-23 -26 -7 -29 -86 -3 -81 11 2 18 -5 20 -19 4 -22 0 -23 -56 -23 -57 0 -60 1
-60 25 0 18 4 23 15 19 12 -5 15 3 15 35 0 30 -4 41 -15 41 -9 0 -15 9 -15 25
0 25 2 26 57 23 46 -2 57 -6 59 -22z m104 -41 c0 -51 3 -65 15 -65 9 0 15 9
15 25 0 20 5 25 25 25 23 0 25 -4 25 -45 l0 -45 -65 0 -65 0 0 85 c0 84 0 85
25 85 24 0 25 -2 25 -65z"/>
<path d="M167 542 c-27 -28 -27 -29 -27 -183 l0 -155 33 -32 33 -32 155 0 155
0 27 28 27 28 0 165 c0 221 12 209 -211 209 l-165 0 -27 -28z m73 -157 c0 -59
2 -65 21 -65 15 0 20 5 17 23 -2 18 2 23 25 25 26 3 27 2 27 -42 l0 -46 -70 0
-70 0 0 85 c0 84 0 85 25 85 24 0 25 -2 25 -65z m240 50 c7 -8 10 -26 8 -40
-3 -14 1 -30 8 -36 8 -6 14 -27 14 -45 0 -31 -3 -34 -30 -34 -27 0 -30 3 -24
24 4 19 1 24 -20 28 -23 5 -26 2 -26 -23 0 -25 -4 -29 -27 -29 l-28 0 2 82 c1
46 2 84 3 86 0 1 24 2 54 2 35 0 58 -5 66 -15z"/>
<path d="M410 390 c0 -11 7 -20 15 -20 8 0 15 9 15 20 0 11 -7 20 -15 20 -8 0
-15 -9 -15 -20z"/>
<path d="M907 403 c-13 -12 -7 -43 8 -43 8 0 15 6 15 13 0 18 -15 38 -23 30z"/>
<path d="M1290 389 c0 -24 23 -21 28 4 2 10 -3 17 -12 17 -10 0 -16 -9 -16
-21z"/>
<path d="M1496 403 c-12 -12 -6 -43 9 -43 8 0 15 9 15 19 0 21 -13 34 -24 24z"/>
<path d="M1760 390 c0 -13 5 -20 13 -17 6 2 12 10 12 17 0 7 -6 15 -12 18 -8
2 -13 -5 -13 -18z"/>
<path d="M1962 390 c-7 -19 -6 -26 5 -28 22 -5 27 5 16 30 l-11 23 -10 -25z"/>
<path d="M2215 401 c-3 -5 -1 -12 5 -16 5 -3 10 1 10 9 0 18 -6 21 -15 7z"/>
</g>
</svg>
